<svg xmlns="http://www.w3.org/2000/svg" viewBox="0 0 155.97 21.14"><defs><style>.cls-1{fill:#fff;}.cls-2{fill:#76ebda;}</style></defs><title>Zasób 3</title><g id="Warstwa_2" data-name="Warstwa 2"><g id="Warstwa_2-2" data-name="Warstwa 2"><rect class="cls-1" x="7.5" y="16.64" width="13.98" height="4.5" rx="2.25" ry="2.25" transform="translate(28.99 37.78) rotate(180)"/><circle class="cls-1" cx="2.25" cy="18.89" r="2.25"/><rect class="cls-2" y="8.32" width="21.48" height="4.5" rx="2.25" ry="2.25" transform="translate(21.48 21.14) rotate(-180)"/><rect class="cls-1" width="10.74" height="4.5" rx="2.25" ry="2.25"/><rect class="cls-1" x="13.74" width="7.74" height="4.5" rx="2.25" ry="2.25"/><path class="cls-1" d="M40.56,6.07a5,5,0,0,1,1.78,2.87H40.05a3,3,0,0,0-1.11-1.4A3.16,3.16,0,0,0,37.13,7,2.83,2.83,0,0,0,34.48,8.7a4.31,4.31,0,0,0-.39,1.89,4.27,4.27,0,0,0,.39,1.88,2.86,2.86,0,0,0,2.65,1.68,3.09,3.09,0,0,0,1.81-.52,3,3,0,0,0,1.11-1.39h2.29a5,5,0,0,1-1.78,2.87,5.94,5.94,0,0,1-6.17.35,4.81,4.81,0,0,1-1.86-2,6.18,6.18,0,0,1-.66-2.89,6.23,6.23,0,0,1,.66-2.9,4.88,4.88,0,0,1,1.85-2A5.4,5.4,0,0,1,37.16,5,5.31,5.31,0,0,1,40.56,6.07Z"/><path class="cls-1" d="M52.68,5.68a5.16,5.16,0,0,1,2,2,5.79,5.79,0,0,1,.72,2.89,5.8,5.8,0,0,1-.72,2.9,5.12,5.12,0,0,1-2,2,5.75,5.75,0,0,1-5.57,0,5.12,5.12,0,0,1-2-2,5.8,5.8,0,0,1-.72-2.9,5.79,5.79,0,0,1,.72-2.89,5.16,5.16,0,0,1,2-2,5.82,5.82,0,0,1,5.57,0ZM48.2,7.41a3.14,3.14,0,0,0-1.14,1.25,4.25,4.25,0,0,0-.41,1.9,4.19,4.19,0,0,0,.41,1.9,3,3,0,0,0,1.14,1.25,3.47,3.47,0,0,0,3.38,0,2.89,2.89,0,0,0,1.14-1.25,4.06,4.06,0,0,0,.42-1.9,4.12,4.12,0,0,0-.42-1.9,3,3,0,0,0-1.14-1.25,3.54,3.54,0,0,0-3.38,0Z"/><path class="cls-1" d="M66.74,13.45a4.79,4.79,0,0,1-2,1.93,6.45,6.45,0,0,1-3.08.69H57.79V5.12h3.89a6.7,6.7,0,0,1,3.08.67,4.74,4.74,0,0,1,2,1.91,5.89,5.89,0,0,1,.68,2.88A5.94,5.94,0,0,1,66.74,13.45Zm-2.51-.27a3.41,3.41,0,0,0,1-2.6,3.44,3.44,0,0,0-1-2.62A3.81,3.81,0,0,0,61.49,7H60v7.09h1.52A3.77,3.77,0,0,0,64.23,13.18Z"/><path class="cls-1" d="M72,6.86V9.7H75.9v1.67H72v3h4.35v1.75H69.84V5.12h6.53V6.86Z"/><path class="cls-2" d="M90.56,5.24V16.07H88.39V8.52l-2.78,7.55H83.72L80.94,8.55v7.52H78.76V5.24h2.65l3.29,8.15,3.22-8.15Z"/><path class="cls-2" d="M102.14,5.12l-3.7,7.12v3.83H96.23V12.24L92.51,5.12H95l2.33,4.79,2.33-4.79Z"/><path class="cls-1" d="M110.89,5.12V6.86h-4.61V9.79H110v1.67h-3.69v4.61H104.1V5.12Z"/><path class="cls-1" d="M118.85,16.07l-2.56-4.27h-1v4.27h-2.19V5.12h4.17a4.14,4.14,0,0,1,2.91.93,3.18,3.18,0,0,1,1,2.45,3.16,3.16,0,0,1-.69,2.08,3.44,3.44,0,0,1-2,1.12l2.73,4.37Zm-3.52-5.77h1.79c1.26,0,1.88-.55,1.88-1.66a1.6,1.6,0,0,0-.46-1.23A1.93,1.93,0,0,0,117.12,7h-1.79Z"/><path class="cls-1" d="M131.39,5.68a5.23,5.23,0,0,1,2,2,5.79,5.79,0,0,1,.72,2.89,5.8,5.8,0,0,1-.72,2.9,5.19,5.19,0,0,1-2,2,5.75,5.75,0,0,1-5.57,0,5.12,5.12,0,0,1-2-2,5.8,5.8,0,0,1-.72-2.9,5.79,5.79,0,0,1,.72-2.89,5.16,5.16,0,0,1,2-2,5.82,5.82,0,0,1,5.57,0Zm-4.48,1.73a3,3,0,0,0-1.14,1.25,4.25,4.25,0,0,0-.41,1.9,4.19,4.19,0,0,0,.41,1.9,2.89,2.89,0,0,0,1.14,1.25,3.47,3.47,0,0,0,3.38,0,2.89,2.89,0,0,0,1.14-1.25,4.06,4.06,0,0,0,.41-1.9,4.12,4.12,0,0,0-.41-1.9,3,3,0,0,0-1.14-1.25,3.54,3.54,0,0,0-3.38,0Z"/><path class="cls-1" d="M145.77,16.07h-2.19l-4.9-7.44v7.44H136.5V5.12h2.18l4.9,7.51V5.12h2.19Z"/><path class="cls-1" d="M156,5.12V6.86h-3v9.21h-2.19V6.86h-3V5.12Z"/></g></g></svg>