<svg xmlns="http://www.w3.org/2000/svg" viewBox="0 0 489.9 66.41"><defs><style>.cls-1{fill:#5fa0fd;}.cls-2{fill:#975bf3;}.cls-3{fill:#76ebda;}.cls-4{fill:#6275e6;}.cls-5{fill:#5ac2f4;}</style></defs><title>Zasób 9</title><g id="Warstwa_2" data-name="Warstwa 2"><g id="Warstwa_2-2" data-name="Warstwa 2"><path class="cls-1" d="M60.41,52.27H30.63a7.07,7.07,0,0,0,0,14.14H60.41a7.07,7.07,0,1,0,0-14.14Z"/><path class="cls-2" d="M7.07,52.27a7.07,7.07,0,1,0,7.07,7.07A7.07,7.07,0,0,0,7.07,52.27Z"/><path class="cls-3" d="M60.41,26.13H7.07a7.07,7.07,0,1,0,0,14.14H60.41a7.07,7.07,0,1,0,0-14.14Z"/><path class="cls-4" d="M26.67,0H7.07a7.07,7.07,0,0,0,0,14.14h19.6A7.07,7.07,0,0,0,26.67,0Z"/><path class="cls-5" d="M60.41,0H50.23a7.07,7.07,0,0,0,0,14.14H60.41A7.07,7.07,0,1,0,60.41,0Z"/><path class="cls-1" d="M127.39,19.05a15.69,15.69,0,0,1,5.6,9h-7.21a9.49,9.49,0,0,0-3.48-4.39,9.88,9.88,0,0,0-5.68-1.61,9,9,0,0,0-8.33,5.26,13.62,13.62,0,0,0-1.22,6,13.47,13.47,0,0,0,1.22,5.89,9,9,0,0,0,8.33,5.26,9.88,9.88,0,0,0,5.68-1.6,9.54,9.54,0,0,0,3.48-4.39H133a15.69,15.69,0,0,1-5.6,9A18.51,18.51,0,0,1,108,48.55a15.15,15.15,0,0,1-5.84-6.21,19.44,19.44,0,0,1-2.07-9.06,19.5,19.5,0,0,1,2.07-9.11A15.17,15.17,0,0,1,108,18a18.57,18.57,0,0,1,19.39,1.09Z"/><path class="cls-1" d="M165.46,17.83a16.3,16.3,0,0,1,6.18,6.26,18.2,18.2,0,0,1,2.27,9.09,18.33,18.33,0,0,1-2.27,9.11,16.15,16.15,0,0,1-6.18,6.28,18.19,18.19,0,0,1-17.49,0,16.11,16.11,0,0,1-6.19-6.28,18.32,18.32,0,0,1-2.26-9.11,18.19,18.19,0,0,1,2.26-9.09A16.26,16.26,0,0,1,148,17.83a18.26,18.26,0,0,1,17.49,0ZM151.4,23.29a9.33,9.33,0,0,0-3.58,3.92,13.09,13.09,0,0,0-1.29,6,13.12,13.12,0,0,0,1.29,6,9.33,9.33,0,0,0,3.58,3.92,11,11,0,0,0,10.62,0,9.33,9.33,0,0,0,3.58-3.92,13.12,13.12,0,0,0,1.29-6,13.09,13.09,0,0,0-1.29-6A9.33,9.33,0,0,0,162,23.29a11,11,0,0,0-10.62,0Z"/><path class="cls-1" d="M209.61,42.24a14.88,14.88,0,0,1-6.21,6.06,20.24,20.24,0,0,1-9.67,2.17H181.5V16.08h12.23a20.72,20.72,0,0,1,9.67,2.12,14.66,14.66,0,0,1,6.21,6,18.37,18.37,0,0,1,2.15,9A18.39,18.39,0,0,1,209.61,42.24Zm-7.87-.83c2-1.95,3-4.67,3-8.18s-1-6.29-3-8.24-4.89-2.92-8.59-2.92h-4.78V44.34h4.78Q198.7,44.34,201.74,41.41Z"/><path class="cls-1" d="M226.22,21.54v8.91H238.4v5.26H226.22V45h13.64v5.5h-20.5V16.08h20.5v5.46Z"/><path class="cls-3" d="M284.43,16.47v34h-6.81V26.75l-8.73,23.72H263l-8.72-23.62V50.47h-6.86v-34h8.32L266,42l10.13-25.57Z"/><path class="cls-3" d="M320.82,16.08,309.18,38.44v12h-6.92v-12L290.57,16.08h7.89l7.31,15.05,7.31-15Z"/><path class="cls-1" d="M348.29,16.08v5.46H333.83v9.2h11.59V36H333.83V50.47H327V16.08Z"/><path class="cls-1" d="M373.29,50.47l-8-13.39h-3V50.47h-6.87V16.08h13.1q6,0,9.14,2.92a10,10,0,0,1,3.14,7.7,10,10,0,0,1-2.17,6.53,10.76,10.76,0,0,1-6.26,3.51l8.58,13.73ZM362.23,32.35h5.65c3.93,0,5.89-1.73,5.89-5.21a5.14,5.14,0,0,0-1.43-3.87,6.21,6.21,0,0,0-4.46-1.39h-5.65Z"/><path class="cls-1" d="M412.67,17.83a16.33,16.33,0,0,1,6.19,6.26,18.19,18.19,0,0,1,2.26,9.09,18.32,18.32,0,0,1-2.26,9.11,16.18,16.18,0,0,1-6.19,6.28,18.19,18.19,0,0,1-17.49,0A16.15,16.15,0,0,1,389,42.29a18.33,18.33,0,0,1-2.27-9.11A18.2,18.2,0,0,1,389,24.09a16.3,16.3,0,0,1,6.18-6.26,18.26,18.26,0,0,1,17.49,0Zm-14.05,5.46A9.33,9.33,0,0,0,395,27.21a13.09,13.09,0,0,0-1.29,6,13.12,13.12,0,0,0,1.29,6,9.33,9.33,0,0,0,3.58,3.92,11,11,0,0,0,10.62,0,9.46,9.46,0,0,0,3.58-3.92,13.12,13.12,0,0,0,1.29-6,13.09,13.09,0,0,0-1.29-6,9.46,9.46,0,0,0-3.58-3.92,11,11,0,0,0-10.62,0Z"/><path class="cls-1" d="M457.85,50.47H451L435.59,27.09V50.47h-6.87V16.08h6.87L451,39.66V16.08h6.87Z"/><path class="cls-1" d="M489.9,16.08v5.46h-9.5V50.47h-6.86V21.54h-9.46V16.08Z"/></g></g></svg>